<svg id="Layer_1"  fill="#61DAFB" enable-background="new 0 0 512 512" height="512" viewBox="0 0 512 512" width="512" xmlns="http://www.w3.org/2000/svg"><g><path d="m256 448c-38.418 0-74.231-11.349-104.277-30.861-3.329-2.162-7.723.214-7.723 4.183v44.678c0 25.405 20.595 46 46 46h132c25.405 0 46-20.595 46-46v-44.678c0-3.969-4.395-6.345-7.723-4.183-30.046 19.512-65.859 30.861-104.277 30.861z"/><path d="m256 64c38.418 0 74.231 11.349 104.277 30.861 3.329 2.162 7.723-.214 7.723-4.183v-44.678c0-25.405-20.595-46-46-46h-132c-25.405 0-46 20.595-46 46v44.678c0 3.969 4.395 6.345 7.723 4.183 30.046-19.512 65.859-30.861 104.277-30.861z"/><path d="m256 96c-88.366 0-160 71.634-160 160 0 88.365 71.634 160 160 160s160-71.635 160-160c0-88.366-71.634-160-160-160zm0 256c-13.233 0-24-10.767-24-24s10.767-24 24-24 24 10.767 24 24-10.767 24-24 24zm56.573-73.946c-3.124 3.124-7.219 4.686-11.313 4.686-4.095 0-8.189-1.562-11.314-4.687-9.062-9.062-21.118-14.053-33.946-14.053s-24.884 4.991-33.946 14.054c-6.248 6.248-16.379 6.249-22.627 0-6.249-6.248-6.249-16.379 0-22.627 15.106-15.107 35.197-23.427 56.573-23.427s41.467 8.32 56.574 23.427c6.248 6.248 6.248 16.379-.001 22.627zm39.588-39.588c-3.124 3.122-7.218 4.684-11.311 4.684-4.096 0-8.191-1.563-11.316-4.689-19.635-19.643-45.749-30.461-73.534-30.461s-53.899 10.818-73.534 30.461c-6.248 6.25-16.378 6.252-22.627.005-6.25-6.247-6.252-16.378-.005-22.627 25.679-25.691 59.831-39.839 96.166-39.839s70.487 14.148 96.167 39.839c6.246 6.249 6.244 16.38-.006 22.627z"/></g></svg>